<?xml version="1.0" encoding="UTF-8"?>
<svg width="60px" height="45px" viewBox="0 0 60 45" version="1.1" xmlns="http://www.w3.org/2000/svg" xmlns:xlink="http://www.w3.org/1999/xlink">
    <!-- Generator: Sketch 43.2 (39069) - http://www.bohemiancoding.com/sketch -->
    <title>3 -Elephant- (animal, wild, pet)</title>
    <desc>Created with Sketch.</desc>
    <defs></defs>
    <g id="Page-1" stroke="none" stroke-width="1" fill="none" fill-rule="evenodd">
        <g id="Icons" transform="translate(-359.000000, -378.000000)">
            <g id="3--Elephant--(animal,-wild,-pet)" transform="translate(360.000000, 378.000000)">
                <g id="Page-1">
                    <g id="Group-4" transform="translate(5.000000, 0.000000)">
                        <path d="M33.4502,11.9995 C32.7922,12.5355 32.2632,13.2405 32.0002,13.9995 L32.0002,14.0005 C30.3902,17.2375 26.9662,19.3695 23.0062,18.9465 C19.3932,18.5615 16.3182,15.9285 15.3382,12.4295 C14.7952,10.4875 14.9422,8.6415 15.5232,6.9995 L8.0002,6.9995 C3.5812,6.9995 0.0002,10.5815 0.0002,14.9995 L0.0002,30.9995 L0.0002,41.9995 C0.0002,43.1045 0.8952,43.9995 2.0002,43.9995 L4.0002,43.9995 C5.1042,43.9995 6.0002,43.1045 6.0002,41.9995 L6.0002,34.9995 C6.0002,32.7915 7.7912,30.9995 10.0002,30.9995 L26.0002,30.9995 C28.2092,30.9995 30.0002,32.7915 30.0002,34.9995 L30.0002,41.9995 C30.0002,43.1045 30.8952,43.9995 32.0002,43.9995 L34.0002,43.9995 C35.1042,43.9995 36.0002,43.1045 36.0002,41.9995 L36.0002,30.9995 L36.0002,21.9995 C36.0002,21.9995 38.7502,31.6875 53.0002,30.9995 L53.0002,26.9995 C42.3752,27.0625 41.0002,19.9995 41.0002,19.9995 L41.0002,10.9995 C41.0002,5.4775 36.5232,0.9995 31.0002,0.9995 L24.0002,0.9995 C18.9022,0.9995 14.7942,5.2385 15.0082,10.3835 C15.2072,15.1855 19.3442,19.0775 24.1492,18.9995 C27.6172,18.9425 30.5482,16.9215 32.0002,14.0005 L32.0002,13.9995" id="Fill-1" fill="#FFFFFF"></path>
                        <path d="M33.4502,11.9995 C32.7922,12.5355 32.2632,13.2405 32.0002,13.9995 L32.0002,14.0005 C30.3902,17.2375 26.9662,19.3695 23.0062,18.9465 C19.3932,18.5615 16.3182,15.9285 15.3382,12.4295 C14.7952,10.4875 14.9422,8.6415 15.5232,6.9995 L8.0002,6.9995 C3.5812,6.9995 0.0002,10.5815 0.0002,14.9995 L0.0002,30.9995 L0.0002,41.9995 C0.0002,43.1045 0.8952,43.9995 2.0002,43.9995 L4.0002,43.9995 C5.1042,43.9995 6.0002,43.1045 6.0002,41.9995 L6.0002,34.9995 C6.0002,32.7915 7.7912,30.9995 10.0002,30.9995 L26.0002,30.9995 C28.2092,30.9995 30.0002,32.7915 30.0002,34.9995 L30.0002,41.9995 C30.0002,43.1045 30.8952,43.9995 32.0002,43.9995 L34.0002,43.9995 C35.1042,43.9995 36.0002,43.1045 36.0002,41.9995 L36.0002,30.9995 L36.0002,21.9995 C36.0002,21.9995 38.7502,31.6875 53.0002,30.9995 L53.0002,26.9995 C42.3752,27.0625 41.0002,19.9995 41.0002,19.9995 L41.0002,10.9995 C41.0002,5.4775 36.5232,0.9995 31.0002,0.9995 L24.0002,0.9995 C18.9022,0.9995 14.7942,5.2385 15.0082,10.3835 C15.2072,15.1855 19.3442,19.0775 24.1492,18.9995 C27.6172,18.9425 30.5482,16.9215 32.0002,14.0005 L32.0002,13.9995" id="Stroke-3" stroke="#1C86F2" stroke-width="2" stroke-linecap="round" stroke-linejoin="round"></path>
                    </g>
                    <path d="M43,12 C43,12.552 42.552,13 42,13 C41.448,13 41,12.552 41,12 C41,11.448 41.448,11 42,11 C42.552,11 43,11.448 43,12" id="Fill-5" fill="#1C86F2"></path>
                    <path d="M29,6 C27.9,6 26.875,6.437 26.112,7.232 C25.78,7.578 25.518,7.972 25.332,8.398 L25.236,8.669 C25.093,9.074 25.015,9.475 25.002,9.877 C25,9.932 25,9.987 25,10.042 C25.003,10.275 25.027,10.51 25.074,10.747 C25.441,12.545 27.147,14 29.009,14 C29.029,14 29.048,14 29.067,13.999 C29.561,13.991 30.033,13.894 30.469,13.717 C31.374,13.346 32.035,12.658 32.431,11.948 C33.021,10.487 34.004,9.171 35.294,8.122" id="Stroke-7" stroke="#1C86F2" stroke-width="2" stroke-linecap="round" stroke-linejoin="round"></path>
                    <path d="M0,20 C0,17.236 2.236,15 5,15" id="Stroke-9" stroke="#1C86F2" stroke-width="2" stroke-linecap="round" stroke-linejoin="round"></path>
                </g>
            </g>
        </g>
    </g>
</svg>