<?xml version="1.0" encoding="UTF-8"?>
<svg width="61px" height="60px" viewBox="0 0 61 60" version="1.1" xmlns="http://www.w3.org/2000/svg" xmlns:xlink="http://www.w3.org/1999/xlink">
    <!-- Generator: Sketch 43.2 (39069) - http://www.bohemiancoding.com/sketch -->
    <title>11 -Multiple Browsers- (startup, company, business)</title>
    <desc>Created with Sketch.</desc>
    <defs></defs>
    <g id="Page-1" stroke="none" stroke-width="1" fill="none" fill-rule="evenodd">
        <g id="Icons" transform="translate(-119.000000, -490.000000)">
            <g id="11--Multiple-Browsers--(startup,-company,-business)" transform="translate(120.000000, 491.000000)">
                <polygon id="Fill-68" fill="#FFFFFF" points="0.011 12 58.011 12 58.011 0 0.011 0"></polygon>
                <polygon id="Stroke-69" stroke="#1C86F2" stroke-width="2" stroke-linecap="round" stroke-linejoin="round" points="0.011 12 58.011 12 58.011 0 0.011 0"></polygon>
                <polygon id="Fill-70" fill="#FFFFFF" points="0.011 12 0.011 48 5.011 48 5.011 29 53.011 29 53.011 48 58.011 48 58.011 12"></polygon>
                <polygon id="Stroke-71" stroke="#1C86F2" stroke-width="2" stroke-linecap="round" stroke-linejoin="round" points="0.011 12 0.011 48 5.011 48 5.011 29 53.011 29 53.011 48 58.011 48 58.011 12"></polygon>
                <path d="M9.011,6 C9.011,7.657 7.668,9 6.011,9 C4.354,9 3.011,7.657 3.011,6 C3.011,4.343 4.354,3 6.011,3 C7.668,3 9.011,4.343 9.011,6" id="Fill-288" fill="#D0E8F9"></path>
                <path d="M9.011,6 C9.011,7.657 7.668,9 6.011,9 C4.354,9 3.011,7.657 3.011,6 C3.011,4.343 4.354,3 6.011,3 C7.668,3 9.011,4.343 9.011,6 Z" id="Stroke-289" stroke="#1C86F2" stroke-width="2" stroke-linecap="round" stroke-linejoin="round"></path>
                <path d="M18.011,6 C18.011,7.657 16.668,9 15.011,9 C13.354,9 12.011,7.657 12.011,6 C12.011,4.343 13.354,3 15.011,3 C16.668,3 18.011,4.343 18.011,6" id="Fill-290" fill="#D0E8F9"></path>
                <path d="M18.011,6 C18.011,7.657 16.668,9 15.011,9 C13.354,9 12.011,7.657 12.011,6 C12.011,4.343 13.354,3 15.011,3 C16.668,3 18.011,4.343 18.011,6 Z" id="Stroke-291" stroke="#1C86F2" stroke-width="2" stroke-linecap="round" stroke-linejoin="round"></path>
                <path d="M27.011,6 C27.011,7.657 25.668,9 24.011,9 C22.354,9 21.011,7.657 21.011,6 C21.011,4.343 22.354,3 24.011,3 C25.668,3 27.011,4.343 27.011,6" id="Fill-292" fill="#D0E8F9"></path>
                <path d="M27.011,6 C27.011,7.657 25.668,9 24.011,9 C22.354,9 21.011,7.657 21.011,6 C21.011,4.343 22.354,3 24.011,3 C25.668,3 27.011,4.343 27.011,6 Z" id="Stroke-293" stroke="#1C86F2" stroke-width="2" stroke-linecap="round" stroke-linejoin="round"></path>
                <polygon id="Fill-294" fill="#D0E8F9" points="5.011 29 53.011 29 53.011 21 5.011 21"></polygon>
                <polygon id="Stroke-295" stroke="#1C86F2" stroke-width="2" stroke-linecap="round" stroke-linejoin="round" points="5.011 29 53.011 29 53.011 21 5.011 21"></polygon>
                <polygon id="Fill-296" fill="#FFFFFF" points="5.011 58 53.011 58 53.011 29 5.011 29"></polygon>
                <polygon id="Stroke-297" stroke="#1C86F2" stroke-width="2" stroke-linecap="round" stroke-linejoin="round" points="5.011 58 53.011 58 53.011 29 5.011 29"></polygon>
                <path d="M9.011,25 L10.011,25" id="Stroke-298" stroke="#1C86F2" stroke-width="2" stroke-linecap="round" stroke-linejoin="round"></path>
                <path d="M14.011,25 L15.011,25" id="Stroke-299" stroke="#1C86F2" stroke-width="2" stroke-linecap="round" stroke-linejoin="round"></path>
                <path d="M19.011,25 L20.011,25" id="Stroke-300" stroke="#1C86F2" stroke-width="2" stroke-linecap="round" stroke-linejoin="round"></path>
                <path d="M31.011,45 L33.011,45" id="Stroke-301" stroke="#1C86F2" stroke-width="2" stroke-linecap="round" stroke-linejoin="round"></path>
                <path d="M45.011,49 L47.011,49" id="Stroke-302" stroke="#1C86F2" stroke-width="2" stroke-linecap="round" stroke-linejoin="round"></path>
                <path d="M37.011,45 L47.011,45" id="Stroke-303" stroke="#1C86F2" stroke-width="2" stroke-linecap="round" stroke-linejoin="round"></path>
                <path d="M31.011,49 L41.011,49" id="Stroke-304" stroke="#1C86F2" stroke-width="2" stroke-linecap="round" stroke-linejoin="round"></path>
                <path d="M31.011,37 L33.011,37" id="Stroke-305" stroke="#1C86F2" stroke-width="2" stroke-linecap="round" stroke-linejoin="round"></path>
                <path d="M45.011,41 L47.011,41" id="Stroke-306" stroke="#1C86F2" stroke-width="2" stroke-linecap="round" stroke-linejoin="round"></path>
                <path d="M37.011,37 L47.011,37" id="Stroke-307" stroke="#1C86F2" stroke-width="2" stroke-linecap="round" stroke-linejoin="round"></path>
                <path d="M31.011,41 L41.011,41" id="Stroke-308" stroke="#1C86F2" stroke-width="2" stroke-linecap="round" stroke-linejoin="round"></path>
                <polygon id="Fill-309" fill="#D0E8F9" points="11.011 50 25.011 50 25.011 36 11.011 36"></polygon>
                <polygon id="Stroke-310" stroke="#1C86F2" stroke-width="2" stroke-linecap="round" stroke-linejoin="round" points="11.011 50 25.011 50 25.011 36 11.011 36"></polygon>
                <path d="M11.011,45 L15.011,42" id="Stroke-311" stroke="#1C86F2" stroke-width="2" stroke-linecap="round" stroke-linejoin="round"></path>
                <path d="M19.011,46 L15.011,42" id="Stroke-312" stroke="#1C86F2" stroke-width="2" stroke-linecap="round" stroke-linejoin="round"></path>
                <path d="M21.011,40 L17.011,44" id="Stroke-313" stroke="#1C86F2" stroke-width="2" stroke-linecap="round" stroke-linejoin="round"></path>
                <path d="M21.011,40 L25.011,44" id="Stroke-314" stroke="#1C86F2" stroke-width="2" stroke-linecap="round" stroke-linejoin="round"></path>
            </g>
        </g>
    </g>
</svg>