<?xml version="1.0" encoding="UTF-8"?>
<svg width="50px" height="58px" viewBox="0 0 50 58" version="1.1" xmlns="http://www.w3.org/2000/svg" xmlns:xlink="http://www.w3.org/1999/xlink">
    <!-- Generator: Sketch 43.2 (39069) - http://www.bohemiancoding.com/sketch -->
    <title>36 -Space Geometry- (geometry, shape, form, drawing)</title>
    <desc>Created with Sketch.</desc>
    <defs></defs>
    <g id="Page-1" stroke="none" stroke-width="1" fill="none" fill-rule="evenodd">
        <g id="Icons" transform="translate(-719.000000, -691.000000)">
            <g id="36--Space-Geometry--(geometry,-shape,-form,-drawing)" transform="translate(720.000000, 692.000000)">
                <polygon id="Fill-328" fill="#FFFFFF" points="12 34.9997 0 27.9997 0 13.9997 12 20.9997"></polygon>
                <polygon id="Stroke-329" stroke="#1C86F2" stroke-width="2" stroke-linecap="round" stroke-linejoin="round" points="12 34.9997 0 27.9997 0 13.9997 12 20.9997"></polygon>
                <polygon id="Fill-330" fill="#D0E8F9" points="12 34.9997 24 27.9997 24 13.9997 12 20.9997"></polygon>
                <polygon id="Stroke-331" stroke="#1C86F2" stroke-width="2" stroke-linecap="round" stroke-linejoin="round" points="12 34.9997 24 27.9997 24 13.9997 12 20.9997"></polygon>
                <polygon id="Fill-332" fill="#FFFFFF" points="24 13.9997 12 20.9997 0 13.9997 12 6.9997"></polygon>
                <polygon id="Stroke-333" stroke="#1C86F2" stroke-width="2" stroke-linecap="round" stroke-linejoin="round" points="24 13.9997 12 20.9997 0 13.9997 12 6.9997"></polygon>
                <polygon id="Fill-334" fill="#D0E8F9" points="36 34.9997 24 27.9997 24 13.9997 36 20.9997"></polygon>
                <polygon id="Stroke-335" stroke="#1C86F2" stroke-width="2" stroke-linecap="round" stroke-linejoin="round" points="36 34.9997 24 27.9997 24 13.9997 36 20.9997"></polygon>
                <polygon id="Fill-336" fill="#FFFFFF" points="36 34.9997 48 27.9997 48 13.9997 36 20.9997"></polygon>
                <polygon id="Stroke-337" stroke="#1C86F2" stroke-width="2" stroke-linecap="round" stroke-linejoin="round" points="36 34.9997 48 27.9997 48 13.9997 36 20.9997"></polygon>
                <polygon id="Fill-338" fill="#FFFFFF" points="36 48.9997 48 41.9997 48 27.9997 36 34.9997"></polygon>
                <polygon id="Stroke-339" stroke="#1C86F2" stroke-width="2" stroke-linecap="round" stroke-linejoin="round" points="36 48.9997 48 41.9997 48 27.9997 36 34.9997"></polygon>
                <polygon id="Fill-340" fill="#FFFFFF" points="12 48.9997 0 41.9997 0 27.9997 12 34.9997"></polygon>
                <polygon id="Stroke-341" stroke="#1C86F2" stroke-width="2" stroke-linecap="round" stroke-linejoin="round" points="12 48.9997 0 41.9997 0 27.9997 12 34.9997"></polygon>
                <polygon id="Fill-342" fill="#FFFFFF" points="48 13.9997 36 20.9997 24 13.9997 36 6.9997"></polygon>
                <polygon id="Stroke-343" stroke="#1C86F2" stroke-width="2" stroke-linecap="round" stroke-linejoin="round" points="48 13.9997 36 20.9997 24 13.9997 36 6.9997"></polygon>
                <polygon id="Fill-344" fill="#FFFFFF" points="24 55.9997 12 48.9997 12 34.9997 24 41.9997"></polygon>
                <polygon id="Stroke-345" stroke="#1C86F2" stroke-width="2" stroke-linecap="round" stroke-linejoin="round" points="24 55.9997 12 48.9997 12 34.9997 24 41.9997"></polygon>
                <polygon id="Fill-346" fill="#FFFFFF" points="24 55.9997 36 48.9997 36 34.9997 24 41.9997"></polygon>
                <polygon id="Stroke-347" stroke="#1C86F2" stroke-width="2" stroke-linecap="round" stroke-linejoin="round" points="24 55.9997 36 48.9997 36 34.9997 24 41.9997"></polygon>
                <polygon id="Fill-348" fill="#D0E8F9" points="36 34.9997 24 41.9997 12 34.9997 24 27.9997"></polygon>
                <polygon id="Stroke-349" stroke="#1C86F2" stroke-width="2" stroke-linecap="round" stroke-linejoin="round" points="36 34.9997 24 41.9997 12 34.9997 24 27.9997"></polygon>
                <polygon id="Fill-350" fill="#FFFFFF" points="36 6.9997 24 13.9997 12 6.9997 24 -0.0003"></polygon>
                <polygon id="Stroke-351" stroke="#1C86F2" stroke-width="2" stroke-linecap="round" stroke-linejoin="round" points="36 6.9997 24 13.9997 12 6.9997 24 -0.0003"></polygon>
            </g>
        </g>
    </g>
</svg>