<?xml version="1.0" encoding="UTF-8" standalone="no"?>
<svg width="53px" height="53px" viewBox="0 0 53 53" version="1.1" xmlns="http://www.w3.org/2000/svg" xmlns:xlink="http://www.w3.org/1999/xlink">
    <!-- Generator: Sketch 40.1 (33804) - http://www.bohemiancoding.com/sketch -->
    <title>357 - Layers (interaction, communication, essential, webby)</title>
    <desc>Created with Sketch.</desc>
    <defs></defs>
    <g id="Page-1" stroke="none" stroke-width="1" fill="none" fill-rule="evenodd">
        <g id="Icons" transform="translate(-484.000000, -601.000000)">
            <g id="Layers" transform="translate(485.000000, 602.000000)">
                <polygon id="Fill-73" fill="#C6E3F8" fill-rule="evenodd" points="50.912 14.456 25.456 29 0 14.456 25.456 0"></polygon>
                <polygon id="Stroke-74" stroke="#1C86F2" stroke-width="2" stroke-linecap="round" stroke-linejoin="round" points="50.912 14.456 25.456 29 0 14.456 25.456 0"></polygon>
                <polygon id="Fill-75" fill="#FFFFFF" fill-rule="evenodd" points="25.456 29 9.656 19.973 0 25.456 25.456 40 50.912 25.456 41.256 19.973"></polygon>
                <polygon id="Stroke-76" stroke="#1C86F2" stroke-width="2" stroke-linecap="round" stroke-linejoin="round" points="25.456 29 9.656 19.973 0 25.456 25.456 40 50.912 25.456 41.256 19.973"></polygon>
                <polygon id="Fill-77" fill="#FFFFFF" fill-rule="evenodd" points="25.456 40 9.656 30.973 0 36.456 25.456 51 50.912 36.456 41.256 30.973"></polygon>
                <polygon id="Stroke-78" stroke="#1C86F2" stroke-width="2" stroke-linecap="round" stroke-linejoin="round" points="25.456 40 9.656 30.973 0 36.456 25.456 51 50.912 36.456 41.256 30.973"></polygon>
            </g>
        </g>
    </g>
</svg>