<?xml version="1.0" encoding="UTF-8" standalone="no"?>
<svg width="44px" height="61px" viewBox="0 0 44 61" version="1.1" xmlns="http://www.w3.org/2000/svg" xmlns:xlink="http://www.w3.org/1999/xlink">
    <!-- Generator: Sketch 40.1 (33804) - http://www.bohemiancoding.com/sketch -->
    <title>51 -File- (document, paper, write, note, webby)</title>
    <desc>Created with Sketch.</desc>
    <defs></defs>
    <g id="Page-1" stroke="none" stroke-width="1" fill="none" fill-rule="evenodd">
        <g id="Icons" transform="translate(-113.000000, -946.000000)">
            <g id="51--File--(document,-paper,-write,-note,-webby)" transform="translate(114.000000, 947.000000)">
                <path d="M42,12.014 L32,12.014 C30.895,12.014 30,11.119 30,10.014 L30,0.014 L42,12.014 Z" id="Fill-315" fill="#D0E8F9"></path>
                <path d="M42,12.014 L32,12.014 C30.895,12.014 30,11.119 30,10.014 L30,0.014 L42,12.014 L42,12.014 Z" id="Stroke-316" stroke="#1C86F2" stroke-width="2" stroke-linecap="round" stroke-linejoin="round"></path>
                <path d="M42,12.014 L32,12.014 C30.895,12.014 30,11.119 30,10.014 L30,0.014 L2,0.014 C0.895,0.014 0,0.909 0,2.014 L0,56.014 C0,57.119 0.895,58.014 2,58.014 L40,58.014 C41.105,58.014 42,57.119 42,56.014 L42,12.014 Z" id="Fill-317" fill="#FFFFFF"></path>
                <path d="M42,12.014 L32,12.014 C30.895,12.014 30,11.119 30,10.014 L30,0.014 L2,0.014 C0.895,0.014 0,0.909 0,2.014 L0,56.014 C0,57.119 0.895,58.014 2,58.014 L40,58.014 C41.105,58.014 42,57.119 42,56.014 L42,12.014 L42,12.014 Z" id="Stroke-318" stroke="#1C86F2" stroke-width="2" stroke-linecap="round" stroke-linejoin="round"></path>
                <path d="M6,12.014 L24,12.014" id="Stroke-585" stroke="#1C86F2" stroke-width="2" stroke-linecap="round" stroke-linejoin="round"></path>
                <path d="M6,18.014 L36,18.014" id="Stroke-586" stroke="#1C86F2" stroke-width="2" stroke-linecap="round" stroke-linejoin="round"></path>
                <path d="M6,24.014 L36,24.014" id="Stroke-587" stroke="#1C86F2" stroke-width="2" stroke-linecap="round" stroke-linejoin="round"></path>
                <path d="M6,30.014 L36,30.014" id="Stroke-588" stroke="#1C86F2" stroke-width="2" stroke-linecap="round" stroke-linejoin="round"></path>
                <path d="M6,36.014 L36,36.014" id="Stroke-589" stroke="#1C86F2" stroke-width="2" stroke-linecap="round" stroke-linejoin="round"></path>
                <path d="M6,42.014 L36,42.014" id="Stroke-590" stroke="#1C86F2" stroke-width="2" stroke-linecap="round" stroke-linejoin="round"></path>
                <path d="M6,48.014 L36,48.014" id="Stroke-591" stroke="#1C86F2" stroke-width="2" stroke-linecap="round" stroke-linejoin="round"></path>
            </g>
        </g>
    </g>
</svg>