<?xml version="1.0" encoding="UTF-8" standalone="no"?>
<svg width="52px" height="59px" viewBox="0 0 52 59" version="1.1" xmlns="http://www.w3.org/2000/svg" xmlns:xlink="http://www.w3.org/1999/xlink">
    <!-- Generator: Sketch 40.1 (33804) - http://www.bohemiancoding.com/sketch -->
    <title>47 - Spaceship (space, astronomy, webby)</title>
    <desc>Created with Sketch.</desc>
    <defs></defs>
    <g id="Page-1" stroke="none" stroke-width="1" fill="none" fill-rule="evenodd">
        <g id="Icons" transform="translate(-485.000000, -358.000000)">
            <g id="Spaceship" transform="translate(485.000000, 359.000000)">
                <polygon id="Path" stroke="#1C86F2" stroke-width="2" stroke-linecap="round" points="47 9 44 6 47 3 50 6"></polygon>
                <path d="M47,3 L47,1 L47,3 Z" id="Path" stroke="#1C86F2" stroke-width="2" stroke-linecap="round"></path>
                <path d="M50,6 L52,6 L50,6 Z" id="Path" stroke="#1C86F2" stroke-width="2" stroke-linecap="round"></path>
                <path d="M47,9 L47,11 L47,9 Z" id="Path" stroke="#1C86F2" stroke-width="2" stroke-linecap="round"></path>
                <path d="M44,6 L42,6 L44,6 Z" id="Path" stroke="#1C86F2" stroke-width="2" stroke-linecap="round"></path>
                <path d="M43,11 C43,11.552 42.552,12 42,12 C41.448,12 41,11.552 41,11 C41,10.448 41.448,10 42,10 C42.552,10 43,10.448 43,11" id="Fill-229" fill="#1C86F2" fill-rule="evenodd"></path>
                <path d="M2,32 C2,32.552 1.552,33 1,33 C0.448,33 0,32.552 0,32 C0,31.448 0.448,31 1,31 C1.552,31 2,31.448 2,32" id="Fill-230" fill="#1C86F2" fill-rule="evenodd"></path>
                <path d="M3,7 C3,7.552 2.552,8 2,8 C1.448,8 1,7.552 1,7 C1,6.448 1.448,6 2,6 C2.552,6 3,6.448 3,7" id="Fill-231" fill="#1C86F2" fill-rule="evenodd"></path>
                <path d="M14,16 C14,16.552 13.552,17 13,17 C12.448,17 12,16.552 12,16 C12,15.448 12.448,15 13,15 C13.552,15 14,15.448 14,16" id="Fill-232" fill="#1C86F2" fill-rule="evenodd"></path>
                <path d="M51,30 C51,30.552 50.552,31 50,31 C49.448,31 49,30.552 49,30 C49,29.448 49.448,29 50,29 C50.552,29 51,29.448 51,30" id="Fill-233" fill="#1C86F2" fill-rule="evenodd"></path>
                <path d="M10,53 C10,53.552 9.552,54 9,54 C8.448,54 8,53.552 8,53 C8,52.448 8.448,52 9,52 C9.552,52 10,52.448 10,53" id="Fill-234" fill="#1C86F2" fill-rule="evenodd"></path>
                <path d="M49,54 C49,54.552 48.552,55 48,55 C47.448,55 47,54.552 47,54 C47,53.448 47.448,53 48,53 C48.552,53 49,53.448 49,54" id="Fill-235" fill="#1C86F2" fill-rule="evenodd"></path>
                <path d="M38.954,30.368 C37.443,29.316 36.828,27.644 36,26 C34.439,22.901 32.803,18.521 32.231,15.086 L30.716,6.327 C30.284,3.736 29.191,2.565 27.555,0.536 C26.997,-0.155 25.939,-0.155 25.382,0.536 C23.745,2.565 22.652,3.736 22.22,6.327 L20.706,15.086 C20.133,18.521 18.561,22.901 17,26 C16.172,27.644 15.493,29.316 13.982,30.368 C10.225,32.984 4.751,37.003 4,41.511 L4,44.475 C4,44.748 4.209,44.974 4.481,44.996 L16.911,45.999 C17.494,46.06 17.936,46.551 17.936,47.137 L17.936,48.539 C17.936,48.794 18.143,49 18.397,49 L20.406,49 C20.597,49 20.768,49.118 20.837,49.296 L21.759,51.704 C21.827,51.882 21.998,52 22.189,52 L30.747,52 C30.938,52 31.109,51.882 31.177,51.704 L32.099,49.296 C32.168,49.118 32.339,49 32.53,49 L34.539,49 C34.794,49 35,48.794 35,48.539 L35,47.138 C35,46.552 35.443,46.06 36.026,46 L48.519,44.996 C48.791,44.974 49,44.747 49,44.475 L49,41.511 C48.249,37.003 42.711,32.984 38.954,30.368 L38.954,30.368 Z" id="Fill-295" fill="#FFFFFF" fill-rule="evenodd"></path>
                <path d="M38.954,30.368 C37.443,29.316 36.828,27.644 36,26 C34.439,22.901 32.803,18.521 32.231,15.086 L30.716,6.327 C30.284,3.736 29.191,2.565 27.555,0.536 C26.997,-0.155 25.939,-0.155 25.382,0.536 C23.745,2.565 22.652,3.736 22.22,6.327 L20.706,15.086 C20.133,18.521 18.561,22.901 17,26 C16.172,27.644 15.493,29.316 13.982,30.368 C10.225,32.984 4.751,37.003 4,41.511 L4,44.475 C4,44.748 4.209,44.974 4.481,44.996 L16.911,45.999 C17.494,46.06 17.936,46.551 17.936,47.137 L17.936,48.539 C17.936,48.794 18.143,49 18.397,49 L20.406,49 C20.597,49 20.768,49.118 20.837,49.296 L21.759,51.704 C21.827,51.882 21.998,52 22.189,52 L30.747,52 C30.938,52 31.109,51.882 31.177,51.704 L32.099,49.296 C32.168,49.118 32.339,49 32.53,49 L34.539,49 C34.794,49 35,48.794 35,48.539 L35,47.138 C35,46.552 35.443,46.06 36.026,46 L48.519,44.996 C48.791,44.974 49,44.747 49,44.475 L49,41.511 C48.249,37.003 42.711,32.984 38.954,30.368 L38.954,30.368 Z" id="Stroke-296" stroke="#1C86F2" stroke-width="2" stroke-linecap="round"></path>
                <path d="M21.936,55 L21.936,56" id="Path" stroke="#1C86F2" stroke-width="2" stroke-linecap="round"></path>
                <path d="M24.936,55 L24.936,57" id="Path" stroke="#1C86F2" stroke-width="2" stroke-linecap="round"></path>
                <path d="M27.936,55 L27.936,57" id="Path" stroke="#1C86F2" stroke-width="2" stroke-linecap="round"></path>
                <path d="M30.936,55 L30.936,56" id="Path" stroke="#1C86F2" stroke-width="2" stroke-linecap="round"></path>
                <path d="M31.532,11.042 C30.341,9.192 28.503,8 26.436,8 C24.422,8 22.622,9.129 21.429,10.899" id="Path" stroke="#1C86F2" stroke-width="2" stroke-linecap="round"></path>
                <path d="M22,41 L31,41" id="Path" stroke="#1C86F2" stroke-width="2" stroke-linecap="round"></path>
                <path d="M22,36 L31,36" id="Path" stroke="#1C86F2" stroke-width="2" stroke-linecap="round"></path>
                <path d="M22,31 L31,31" id="Path" stroke="#1C86F2" stroke-width="2" stroke-linecap="round"></path>
                <path d="M18,39 L18,48" id="Path" stroke="#1C86F2" stroke-width="2" stroke-linecap="round"></path>
                <path d="M35,39 L35,48" id="Path" stroke="#1C86F2" stroke-width="2" stroke-linecap="round"></path>
                <path d="M30,45 L30,47" id="Path" stroke="#1C86F2" stroke-width="2" stroke-linecap="round"></path>
                <path d="M23,45 L23,47" id="Path" stroke="#1C86F2" stroke-width="2" stroke-linecap="round"></path>
                <path d="M23,45 L30,45" id="Path" stroke="#1C86F2" stroke-width="2" stroke-linecap="round"></path>
                <path d="M4,42 L18,42" id="Path" stroke="#1C86F2" stroke-width="2" stroke-linecap="round"></path>
                <path d="M35,42 L49,42" id="Path" stroke="#1C86F2" stroke-width="2" stroke-linecap="round"></path>
            </g>
        </g>
    </g>
</svg>