<?xml version="1.0" standalone="no"?>
<!DOCTYPE svg PUBLIC "-//W3C//DTD SVG 20010904//EN"
 "http://www.w3.org/TR/2001/REC-SVG-20010904/DTD/svg10.dtd">
<svg version="1.0" xmlns="http://www.w3.org/2000/svg"
 width="500.000000pt" height="500.000000pt" viewBox="0 0 500.000000 500.000000"
 preserveAspectRatio="xMidYMid meet">
<metadata>
Created by potrace 1.11, written by Peter Selinger 2001-2013
</metadata>
<g transform="translate(0.000000,500.000000) scale(0.100000,-0.100000)"
fill="#000000" stroke="none">
<path d="M2180 4879 c-823 -74 -1559 -609 -1883 -1369 -129 -304 -182 -568
-182 -905 1 -210 15 -331 60 -520 9 -38 18 -74 19 -80 32 -142 147 -408 246
-570 40 -66 127 -194 139 -205 4 -3 32 -36 63 -75 150 -185 358 -363 584 -499
288 -172 589 -270 964 -311 62 -7 333 -7 395 0 22 2 65 7 95 10 72 8 231 41
317 66 37 11 73 21 78 22 154 42 404 162 571 274 168 113 404 324 490 439 16
22 32 41 35 44 39 33 190 271 257 405 98 194 183 465 208 660 3 28 8 58 10 68
21 111 20 458 -1 569 -2 11 -7 39 -9 62 -3 22 -8 52 -11 66 -3 14 -10 50 -16
80 -18 90 -75 268 -123 384 -308 734 -1008 1272 -1786 1372 -25 3 -56 8 -70
10 -50 9 -357 11 -450 3z m394 -144 c50 -4 97 -8 105 -10 9 -1 39 -6 66 -9 67
-10 230 -51 323 -82 384 -129 735 -377 992 -700 55 -69 160 -219 160 -229 0
-2 19 -36 42 -77 80 -141 154 -334 197 -513 27 -113 29 -119 36 -180 4 -27 10
-77 15 -110 8 -58 5 -408 -4 -470 -70 -499 -271 -908 -617 -1254 -302 -303
-709 -516 -1119 -585 -47 -8 -101 -18 -120 -21 -19 -4 -123 -8 -230 -10 -502
-7 -933 134 -1335 439 -95 71 -289 263 -366 361 -123 155 -258 388 -309 530
-12 33 -26 69 -31 80 -40 87 -104 378 -115 530 -12 154 -7 377 10 470 2 11 7
43 10 70 23 166 100 402 192 590 235 483 686 887 1189 1065 99 35 292 85 370
96 28 3 59 8 70 10 11 2 56 7 100 10 44 4 81 7 82 8 5 4 205 -2 287 -9z"/>
<path d="M2133 4460 c-50 -20 -56 -90 -11 -123 22 -17 33 -19 55 -11 61 21 69
100 13 129 -16 8 -30 15 -32 14 -2 0 -13 -4 -25 -9z"/>
<path d="M3111 4288 c-44 -12 -107 -53 -121 -77 -15 -29 -12 -56 8 -80 26 -31
64 -33 107 -4 49 34 109 33 172 -2 70 -38 110 -97 128 -187 2 -10 -7 -38 -21
-63 -30 -58 -30 -80 1 -110 30 -31 54 -31 89 -4 76 60 93 195 39 310 -73 157
-257 256 -402 217z"/>
<path d="M2135 4067 c-77 -20 -158 -79 -204 -151 -51 -77 -76 -182 -61 -254 6
-26 11 -56 13 -67 1 -11 20 -49 42 -84 53 -85 131 -139 236 -161 69 -15 82
-15 150 0 150 32 254 137 284 286 22 108 4 195 -56 283 -45 66 -139 135 -199
146 -70 13 -156 14 -205 2z m222 -165 c81 -51 121 -144 101 -237 -13 -63 -42
-106 -99 -147 -40 -29 -51 -32 -119 -32 -66 -1 -81 3 -121 28 -49 31 -91 89
-107 146 -9 35 -9 45 3 108 12 67 88 145 160 163 52 14 135 1 182 -29z"/>
<path d="M1235 4000 c-169 -44 -284 -240 -223 -380 35 -78 93 -105 140 -63 25
23 28 49 7 88 -33 61 -18 129 40 178 50 42 98 51 144 27 48 -25 78 -25 105 0
82 77 -74 186 -213 150z"/>
<path d="M3043 3315 c-37 -16 -51 -54 -34 -91 12 -27 36 -40 94 -49 54 -9 103
-58 119 -118 12 -45 11 -51 -12 -94 -32 -60 -67 -85 -127 -90 -104 -9 -189 93
-161 193 9 34 -4 83 -25 96 -22 14 -74 8 -90 -9 -43 -49 -44 -173 -1 -260 65
-134 219 -196 366 -147 69 23 158 109 180 176 23 67 19 171 -9 228 -59 120
-212 204 -300 165z"/>
<path d="M3735 3320 c-62 -24 -66 -103 -8 -129 46 -21 91 7 100 62 3 18 -47
78 -64 76 -4 0 -17 -4 -28 -9z"/>
<path d="M1751 3164 c-49 -26 -56 -80 -14 -114 60 -47 139 18 103 85 -17 32
-58 45 -89 29z"/>
<path d="M992 3084 c-128 -28 -237 -151 -261 -295 -12 -72 3 -189 31 -239 40
-72 62 -98 109 -134 114 -85 267 -83 377 5 67 52 117 136 132 218 16 90 16 82
-6 196 -7 38 -61 133 -91 161 -36 33 -98 74 -119 78 -10 2 -32 7 -49 11 -16 4
-37 8 -45 10 -8 1 -43 -3 -78 -11z m118 -144 c43 -13 78 -43 109 -95 21 -33
25 -53 25 -120 0 -67 -4 -87 -25 -124 -14 -25 -41 -58 -62 -74 -31 -26 -46
-30 -95 -31 -77 -1 -128 32 -166 108 -40 79 -39 162 3 243 42 83 123 118 211
93z"/>
<path d="M3808 2938 c-24 -8 -40 -31 -43 -63 -1 -5 5 -22 12 -37 9 -20 23 -28
55 -33 105 -18 163 -169 110 -287 -27 -59 -55 -86 -99 -94 -78 -14 -106 -72
-57 -121 21 -21 32 -25 68 -21 167 19 281 208 244 409 -12 68 -39 120 -89 174
-54 59 -147 93 -201 73z"/>
<path d="M2149 2472 c-217 -58 -363 -251 -361 -477 3 -387 426 -612 754 -403
60 39 134 121 166 183 59 117 71 262 31 366 -31 79 -147 39 -131 -44 4 -18 7
-66 6 -107 0 -118 -54 -216 -153 -279 -156 -99 -352 -64 -462 83 -93 123 -93
290 -1 411 109 144 294 180 455 90 58 -32 82 -32 112 1 43 47 19 96 -70 140
-111 54 -232 66 -346 36z"/>
<path d="M3324 2235 c-28 -29 -25 -68 8 -97 47 -42 122 -1 112 60 -10 60 -77
80 -120 37z"/>
<path d="M1464 2182 c-75 -12 -73 -127 3 -136 34 -5 59 11 72 47 19 50 -22 98
-75 89z"/>
<path d="M3611 1865 c-105 -33 -198 -130 -225 -232 -60 -228 165 -363 370
-223 84 58 147 179 143 273 -3 62 -45 134 -95 163 -51 30 -133 38 -193 19z
m122 -140 c9 -4 18 -12 18 -19 1 -6 3 -22 4 -36 10 -93 -142 -213 -209 -165
-64 47 -10 174 94 219 34 15 57 15 93 1z"/>
<path d="M1674 1190 c-34 -13 -49 -59 -32 -96 12 -26 41 -40 73 -35 69 10 79
107 13 130 -17 6 -31 11 -32 10 -1 0 -10 -4 -22 -9z"/>
<path d="M2869 1131 c-19 -15 -23 -27 -21 -66 5 -128 -114 -233 -275 -243
-129 -8 -222 40 -258 134 -20 52 -56 70 -102 51 -59 -26 -39 -136 39 -216 165
-168 483 -148 652 41 83 91 113 236 61 292 -28 31 -64 33 -96 7z"/>
</g>
</svg>
